<?xml version="1.0" standalone="no"?>
<!DOCTYPE svg PUBLIC "-//W3C//DTD SVG 20010904//EN"
 "http://www.w3.org/TR/2001/REC-SVG-20010904/DTD/svg10.dtd">
<svg version="1.0" xmlns="http://www.w3.org/2000/svg"
 width="67.000000pt" height="71.000000pt" viewBox="0 0 67.000000 71.000000"
 preserveAspectRatio="xMidYMid meet">

<g transform="translate(0.000000,71.000000) scale(0.100000,-0.100000)"
fill="#000000" stroke="none">
<path d="M342 694 c-18 -9 -37 -25 -43 -35 -6 -12 -21 -19 -40 -19 -20 0 -40
-10 -60 -29 -39 -40 -39 -82 0 -122 l29 -29 151 0 c138 0 153 2 171 20 30 30
27 83 -7 110 -15 12 -33 34 -39 50 -24 57 -103 84 -162 54z m93 -18 c22 -9 41
-28 54 -53 10 -21 29 -44 40 -51 25 -15 28 -54 5 -76 -12 -13 -41 -16 -154
-16 -119 0 -141 3 -161 18 -49 41 -15 122 52 122 18 0 32 7 39 21 10 18 60 47
83 49 4 0 23 -6 42 -14z"/>
<path d="M376 433 c-3 -3 -6 -21 -6 -40 l0 -33 -101 0 -100 0 3 -35 c4 -43 22
-51 26 -12 l3 27 184 0 184 0 3 -27 c4 -39 22 -31 26 12 l3 35 -100 0 -101 0
0 34 c0 34 -11 52 -24 39z"/>
<path d="M16 243 c-2 -10 -6 -65 -8 -123 l-3 -105 165 0 165 0 -4 115 c-2 63
-5 118 -8 123 -2 4 -71 7 -153 7 -133 0 -149 -2 -154 -17z m294 -88 l0 -85
-135 0 -135 0 0 85 0 85 135 0 135 0 0 -85z m5 -115 c4 -6 -47 -10 -145 -10
-98 0 -149 4 -145 10 4 6 63 10 145 10 82 0 141 -4 145 -10z"/>
<path d="M512 133 l3 -128 75 0 75 0 3 128 3 127 -81 0 -81 0 3 -127z m133 97
c-3 -5 -31 -10 -61 -10 -30 0 -54 5 -54 10 0 6 27 10 61 10 37 0 58 -4 54 -10z
m5 -100 l0 -70 -60 0 -60 0 0 70 0 70 60 0 60 0 0 -70z m-5 -100 c-3 -5 -31
-10 -61 -10 -30 0 -54 5 -54 10 0 6 27 10 61 10 37 0 58 -4 54 -10z"/>
</g>
</svg>
