<?xml version="1.0" standalone="no"?>
<!DOCTYPE svg PUBLIC "-//W3C//DTD SVG 20010904//EN"
 "http://www.w3.org/TR/2001/REC-SVG-20010904/DTD/svg10.dtd">
<svg version="1.0" xmlns="http://www.w3.org/2000/svg"
 width="57.000000pt" height="73.000000pt" viewBox="0 0 57.000000 73.000000"
 preserveAspectRatio="xMidYMid meet">

<g transform="translate(0.000000,73.000000) scale(0.100000,-0.100000)"
fill="#000000" stroke="none">
<path d="M230 701 c-50 -31 -151 -71 -180 -71 -10 0 -26 -7 -35 -17 -14 -14
-16 -39 -13 -192 3 -168 4 -178 30 -227 14 -27 46 -69 70 -92 46 -46 148 -102
183 -102 37 0 142 59 189 105 81 81 90 114 94 322 l4 183 -24 8 c-13 5 -54 19
-91 31 -37 12 -90 35 -116 51 -27 17 -52 30 -57 30 -5 0 -29 -13 -54 -29z
m116 -22 c31 -18 88 -42 127 -54 l72 -22 0 -184 c0 -182 0 -185 -27 -230 -48
-82 -169 -169 -234 -169 -42 0 -141 59 -189 112 -66 74 -76 115 -73 308 l3
163 75 24 c41 12 98 36 125 52 28 17 53 30 58 30 4 1 32 -13 63 -30z"/>
<path d="M215 531 c-131 -60 -143 -226 -22 -304 138 -90 315 55 256 210 -22
59 -100 113 -164 113 -16 0 -48 -9 -70 -19z m141 -17 c151 -72 95 -296 -72
-296 -100 0 -174 92 -153 191 20 97 132 149 225 105z"/>
<path d="M303 408 c-31 -30 -33 -31 -51 -15 -24 22 -35 21 -57 -3 -19 -21 -18
-22 28 -68 l47 -47 62 62 c61 61 62 62 43 83 -25 27 -35 25 -72 -12z m19 -60
l-52 -52 -35 34 c-19 19 -35 38 -35 42 0 18 32 19 51 2 19 -17 21 -17 57 19
32 33 38 35 52 22 13 -14 9 -21 -38 -67z"/>
</g>
</svg>
