<?xml version="1.0" standalone="no"?>
<!DOCTYPE svg PUBLIC "-//W3C//DTD SVG 20010904//EN"
 "http://www.w3.org/TR/2001/REC-SVG-20010904/DTD/svg10.dtd">
<svg version="1.0" xmlns="http://www.w3.org/2000/svg"
 width="62.000000pt" height="72.000000pt" viewBox="0 0 62.000000 72.000000"
 preserveAspectRatio="xMidYMid meet">

<g transform="translate(0.000000,72.000000) scale(0.100000,-0.100000)"
fill="#000000" stroke="none">
<path d="M12 708 c-17 -17 -17 -679 0 -696 9 -9 79 -12 254 -12 199 0 244 3
254 15 6 8 9 19 5 25 -5 8 -11 6 -18 -5 -11 -13 -42 -15 -247 -13 l-235 3 0
335 0 335 240 0 240 0 3 -95 c4 -134 22 -141 22 -9 0 68 -4 109 -12 117 -17
17 -489 17 -506 0z"/>
<path d="M80 630 c0 -6 68 -10 185 -10 117 0 185 4 185 10 0 6 -68 10 -185 10
-117 0 -185 -4 -185 -10z"/>
<path d="M80 570 c0 -6 68 -10 185 -10 117 0 185 4 185 10 0 6 -68 10 -185 10
-117 0 -185 -4 -185 -10z"/>
<path d="M80 520 c0 -6 68 -10 185 -10 117 0 185 4 185 10 0 6 -68 10 -185 10
-117 0 -185 -4 -185 -10z"/>
<path d="M425 450 c-27 -28 -47 -40 -68 -40 -38 0 -74 -21 -121 -69 -35 -36
-38 -43 -28 -65 10 -22 6 -34 -29 -97 -22 -40 -42 -75 -44 -77 -2 -2 -18 3
-36 12 -26 13 -34 14 -41 4 -16 -26 -9 -40 20 -37 15 2 33 -1 41 -5 10 -7 21
-2 35 16 28 34 69 55 74 39 2 -7 23 -24 46 -39 39 -25 47 -27 144 -24 78 1
110 -2 133 -14 17 -8 38 -13 47 -11 12 2 7 9 -19 21 -36 18 -36 19 -27 60 27
115 27 114 48 109 11 -3 20 -1 20 5 0 13 -36 26 -49 18 -5 -4 -30 19 -56 49
l-47 55 31 35 c36 41 38 55 13 78 -28 25 -44 21 -87 -23z m74 6 c10 -12 -11
-38 -113 -143 -119 -123 -125 -127 -143 -110 -17 16 -12 22 107 142 69 69 128
125 131 125 4 0 12 -6 18 -14z m-149 -74 c0 -8 -38 -45 -87 -86 -36 -30 -49
-8 -16 26 43 46 103 81 103 60z m142 -84 c18 -24 39 -48 47 -54 12 -9 12 -21
2 -75 -7 -35 -18 -67 -24 -71 -23 -15 -192 -9 -225 8 -18 8 -32 20 -32 25 0 9
24 14 45 9 5 -1 23 -2 39 -2 54 -2 86 71 52 118 -13 17 -12 22 17 52 17 17 34
32 38 32 4 0 22 -19 41 -42z m-102 -86 c0 -44 -32 -60 -88 -46 -23 7 -22 8 20
51 39 40 44 42 55 26 7 -9 13 -23 13 -31z m-152 -37 c-2 -1 -13 -8 -25 -14
-22 -11 -22 -10 -11 14 9 19 14 22 25 13 7 -6 12 -12 11 -13z"/>
<path d="M80 460 c0 -6 58 -10 154 -10 93 0 157 4 161 10 4 7 -50 10 -154 10
-101 0 -161 -4 -161 -10z"/>
<path d="M80 400 c0 -6 28 -10 65 -10 37 0 65 4 65 10 0 6 -28 10 -65 10 -37
0 -65 -4 -65 -10z"/>
<path d="M515 378 c-4 -10 -4 -26 0 -35 8 -17 8 -17 12 0 3 9 3 25 0 35 -4 16
-4 16 -12 0z"/>
</g>
</svg>
