<?xml version="1.0" standalone="no"?>
<!DOCTYPE svg PUBLIC "-//W3C//DTD SVG 20010904//EN"
 "http://www.w3.org/TR/2001/REC-SVG-20010904/DTD/svg10.dtd">
<svg version="1.0" xmlns="http://www.w3.org/2000/svg"
 width="67.000000pt" height="78.000000pt" viewBox="0 0 67.000000 78.000000"
 preserveAspectRatio="xMidYMid meet">

<g transform="translate(0.000000,78.000000) scale(0.100000,-0.100000)"
fill="#000000" stroke="none">
<path d="M290 712 c0 -76 -21 -158 -48 -192 l-18 -22 -19 28 c-42 66 -70 69
-79 10 -5 -30 -26 -75 -64 -133 -56 -86 -57 -89 -57 -158 1 -135 78 -211 237
-236 226 -35 418 63 418 214 0 41 -9 45 -45 21 l-25 -16 0 49 c0 113 -76 306
-162 414 -32 39 -102 89 -126 89 -8 0 -12 -23 -12 -68z m114 -34 c94 -108 159
-272 160 -400 0 -43 4 -78 8 -78 5 0 22 7 38 15 26 13 30 14 30 1 0 -27 -18
-63 -49 -99 -78 -89 -293 -126 -357 -62 -51 51 -39 119 41 229 19 26 38 61 43
78 4 16 11 30 16 31 5 1 24 -27 43 -63 19 -36 38 -66 42 -68 4 -1 12 10 17 25
l10 28 13 -24 c7 -13 15 -49 18 -80 4 -49 2 -61 -22 -95 -27 -40 -27 -58 0
-36 62 51 60 193 -2 262 -21 24 -31 23 -35 -3 -2 -17 -12 -7 -45 45 -23 36
-47 66 -52 66 -5 0 -15 -24 -21 -54 -7 -33 -26 -76 -50 -110 -74 -106 -87
-155 -55 -216 19 -36 9 -38 -50 -11 -59 26 -101 80 -114 143 -15 72 -3 112 57
202 28 42 54 93 58 113 l7 37 23 -28 c13 -15 24 -36 24 -47 0 -31 28 -22 54
19 34 51 54 112 62 187 6 58 9 63 24 55 10 -5 39 -33 64 -62z"/>
</g>
</svg>
