<?xml version="1.0" standalone="no"?>
<!DOCTYPE svg PUBLIC "-//W3C//DTD SVG 20010904//EN"
 "http://www.w3.org/TR/2001/REC-SVG-20010904/DTD/svg10.dtd">
<svg version="1.0" xmlns="http://www.w3.org/2000/svg"
 width="73.000000pt" height="57.000000pt" viewBox="0 0 73.000000 57.000000"
 preserveAspectRatio="xMidYMid meet">

<g transform="translate(0.000000,57.000000) scale(0.100000,-0.100000)"
fill="#000000" stroke="none">
<path d="M226 554 c-3 -8 -6 -54 -6 -100 0 -68 3 -84 15 -84 12 0 15 16 15 85
l0 85 230 0 230 0 0 -140 0 -140 -170 0 c-97 0 -170 -4 -170 -9 0 -30 14 -41
55 -41 39 0 43 2 38 21 -5 17 -2 20 13 17 12 -2 18 -11 16 -21 -3 -16 7 -17
115 -15 l118 3 0 175 0 175 -246 3 c-218 2 -247 1 -253 -14z"/>
<path d="M366 421 c-11 -22 -20 -41 -22 -41 -2 0 -15 5 -29 12 -19 9 -28 9
-37 0 -9 -9 -6 -12 12 -12 13 0 31 -7 41 -16 17 -15 19 -14 35 22 l17 39 16
-52 c9 -28 19 -54 22 -57 3 -4 12 12 19 34 15 45 23 49 43 20 13 -19 14 -18
31 18 l18 37 15 -30 c22 -42 22 -42 43 -15 17 22 22 23 39 13 12 -7 28 -13 36
-13 28 0 15 15 -22 27 -34 11 -40 10 -55 -8 -17 -20 -17 -19 -36 17 l-19 38
-20 -38 -20 -39 -16 23 c-19 27 -20 27 -39 -20 l-15 -35 -19 59 -20 59 -18
-42z"/>
<path d="M150 349 c-33 -14 -71 -50 -64 -61 3 -4 20 2 37 14 46 33 126 32 162
-2 39 -36 55 -73 55 -126 0 -111 -105 -178 -201 -129 -48 25 -89 105 -54 105
13 0 11 6 -7 30 l-22 30 -23 -22 c-26 -24 -29 -38 -10 -38 6 0 22 -22 35 -50
32 -69 72 -95 147 -95 48 0 66 5 93 24 94 71 93 223 -2 296 -40 31 -105 41
-146 24z"/>
<path d="M151 235 c15 -34 46 -74 54 -72 18 6 10 24 -24 53 -19 16 -32 24 -30
19z"/>
</g>
</svg>
