<?xml version="1.0" standalone="no"?>
<!DOCTYPE svg PUBLIC "-//W3C//DTD SVG 20010904//EN"
 "http://www.w3.org/TR/2001/REC-SVG-20010904/DTD/svg10.dtd">
<svg version="1.0" xmlns="http://www.w3.org/2000/svg"
 width="80.000000pt" height="87.000000pt" viewBox="0 0 80.000000 87.000000"
 preserveAspectRatio="xMidYMid meet">

<g transform="translate(0.000000,87.000000) scale(0.100000,-0.100000)"
fill="#000000" stroke="none">
<path d="M315 808 c-2 -7 -5 -26 -7 -43 -3 -25 -7 -30 -28 -27 -14 1 -39 2
-56 2 -23 0 -36 6 -48 25 -11 17 -25 25 -46 25 -50 0 -75 -44 -50 -91 15 -27
75 -26 92 1 9 14 24 20 49 20 48 0 82 -35 77 -81 -4 -44 -32 -50 -65 -15 -28
30 -63 34 -86 8 -42 -46 4 -118 59 -94 13 7 27 19 30 27 4 8 18 15 34 15 38 0
77 -58 60 -90 -9 -17 -20 -20 -86 -20 -69 0 -78 2 -96 25 -23 29 -58 32 -81 7
-42 -46 4 -118 59 -94 13 7 27 19 30 27 5 12 24 15 85 15 67 0 80 -3 89 -19 8
-15 5 -28 -11 -55 -26 -44 -61 -48 -91 -11 -22 29 -44 32 -76 9 -44 -30 -16
-104 39 -104 10 0 26 11 37 25 12 15 30 25 46 25 23 0 26 -4 26 -38 0 -76 -82
-110 -135 -56 -18 18 -31 23 -48 19 -46 -14 -62 -68 -29 -98 26 -24 57 -21 84
7 18 19 36 25 78 28 l55 3 3 -35 c4 -43 14 -50 72 -50 54 0 70 13 70 55 0 26
5 33 36 44 32 12 38 11 58 -8 12 -12 29 -21 38 -21 15 0 88 72 88 87 0 4 -10
17 -22 30 -20 21 -20 26 -8 62 11 36 17 40 49 43 l36 3 3 68 3 67 -39 0 c-36
0 -40 2 -52 40 -12 37 -12 42 8 63 29 31 28 37 -16 80 -43 42 -57 45 -87 17
-18 -17 -25 -18 -58 -8 -34 10 -37 14 -37 49 0 43 -10 49 -81 49 -31 0 -51 -5
-54 -12z m115 -53 c0 -25 5 -37 18 -41 9 -3 30 -12 46 -20 28 -14 30 -13 57
12 16 15 30 26 31 23 2 -2 16 -19 32 -36 l30 -33 -24 -25 -23 -24 21 -48 c18
-43 24 -48 56 -51 36 -3 36 -3 36 -52 0 -49 0 -49 -36 -52 -32 -3 -38 -8 -56
-51 l-21 -48 23 -24 24 -25 -34 -35 -34 -35 -26 25 -27 25 -46 -20 c-43 -19
-47 -24 -47 -55 l0 -35 -50 0 -50 0 0 35 c0 22 -6 38 -15 41 -11 5 -12 10 -2
25 9 14 23 19 60 19 163 0 265 162 192 306 -37 72 -92 108 -176 112 -51 3 -68
8 -77 23 -10 16 -10 21 3 25 9 4 15 19 15 40 l0 34 50 0 50 0 0 -35z m-275
-20 c0 -25 -4 -31 -27 -33 -19 -2 -28 2 -33 18 -8 27 12 52 39 48 16 -2 21
-10 21 -33z m292 -96 c15 -5 43 -25 61 -42 90 -86 81 -209 -21 -291 -34 -27
-46 -31 -100 -31 -60 0 -62 1 -65 27 -5 40 24 86 62 102 44 18 59 46 46 81 -7
17 -20 27 -41 32 -20 4 -38 17 -50 37 -19 31 -25 77 -12 89 10 11 89 8 120 -4z
m-239 -21 c30 -30 -4 -77 -41 -57 -29 17 -15 69 18 69 6 0 16 -5 23 -12z m-80
-130 c30 -30 -4 -77 -41 -57 -29 17 -15 69 18 69 6 0 16 -5 23 -12z m266 6
c22 -8 20 -51 -2 -63 -39 -21 -73 36 -34 58 21 13 17 12 36 5z m-186 -136 c30
-30 0 -78 -37 -58 -32 17 -21 70 14 70 6 0 16 -5 23 -12z m-50 -170 c2 -20 -2
-28 -19 -33 -29 -9 -53 15 -44 44 10 34 59 25 63 -11z"/>
<path d="M420 601 c0 -5 8 -12 18 -15 32 -11 64 -54 77 -103 10 -36 15 -44 20
-30 11 26 -22 103 -56 132 -31 25 -59 33 -59 16z"/>
</g>
</svg>
