<svg xmlns="http://www.w3.org/2000/svg" width="455.324" height="511.789" viewBox="0 0 455.324 511.789">
  <g id="computer_1" transform="translate(-28.176 511.789)">
    <path id="Path_103" data-name="Path 103" d="M48.3-510.2C39-506.9,31.4-499,29-489.9c-.7,2.4-.9,51.4-.8,137.1l.3,133.3,2.4,4.5a31.287,31.287,0,0,0,13.6,13.8l5,2.7,77.8.3,77.7.2v5.8c0,10.7-3,41-4.6,46.4-.5,1.6-2.2,1.8-16.9,1.8-17.5,0-20.6.6-22.4,4.7-1.6,3.4-1.4,4.7,1,7.7l2,2.6H347.9l2-2.6c2.4-3,2.6-4.3,1-7.7-1.8-4.1-4.9-4.7-22.4-4.7-14.7,0-16.4-.2-16.9-1.8-1.6-5.4-4.6-35.7-4.6-46.4V-198l77.8-.2,77.7-.3,5-2.7A31.287,31.287,0,0,0,481.1-215l2.4-4.5v-271l-2.3-4.2c-3.5-6.6-7.9-11-14-14l-5.7-2.8-204-.2C63.7-511.9,53.2-511.9,48.3-510.2Zm413.1,15.5a17.245,17.245,0,0,1,5.7,5.7c1.8,3.3,1.9,8.2,1.9,111.2V-270H449v-57c0-55.7,0-57-2-59-2.5-2.5-7.1-2.6-10.1-.1l-2.4,1.9-.3,57.1L434-270H78V-463H433.9l.3,25.4c.3,23.3.5,25.6,2.2,27.5,2.5,2.7,7.9,2.8,10.6.1,1.9-1.9,2-3.3,2-28.5,0-29.8-.3-31.3-6.6-36.1l-3.7-2.9H73.3l-3.7,2.9c-7,5.3-6.6-.8-6.6,107.1V-270H43V-377.8c0-103,.1-107.9,1.9-111.2a17.245,17.245,0,0,1,5.7-5.7l3.9-2.3h403Zm7.4,255.9c-.3,15.3-.4,16.5-2.7,19.7-4.7,6.5,10.7,6.1-210.1,6.1s-205.4.4-210.1-6.1c-2.3-3.2-2.4-4.4-2.7-19.7L42.9-255H469.1ZM292.4-184.3c.8,14.6,3.2,37.9,4.2,39.4.3.5-16.5.9-40.6.9s-40.9-.4-40.6-.9c1-1.5,3.4-24.8,4.2-39.4l.7-13.7h71.4Z" fill="#d8a457"/>
    <path id="Path_104" data-name="Path 104" d="M213.7-418.9c-2.7,1.6-80.7,92.9-81.8,95.7-1.9,4.8,3.3,10.5,8.7,9.4,1.7-.3,7.6-6.4,19.2-20.1,66.8-78.2,64.2-75,64.2-78.5C224-417.6,217.9-421.4,213.7-418.9Z" fill="#d8a457"/>
    <path id="Path_105" data-name="Path 105" d="M155.2-398.3c-4,3.5-22.4,24.8-23.3,27-1.8,4.7,1.8,9.3,7.2,9.3,3.5,0,4.3-.7,15.8-13.6,10.4-11.7,12.1-14.1,12.1-17A7.156,7.156,0,0,0,155.2-398.3Z" fill="#d8a457"/>
    <path id="Path_106" data-name="Path 106" d="M235.7-239.3c-2.9,3.3-3.1,6.8-.4,9.9l2.5,2.9h36.4l2.5-2.9c2.7-3.1,2.5-6.6-.4-9.9-1.4-1.5-3.8-1.7-20.3-1.7S237.1-240.8,235.7-239.3Z" fill="#d8a457"/>
    <path id="Path_107" data-name="Path 107" d="M78.3-102.1a16.465,16.465,0,0,0-5.8,4.5c-.9,1.4-7.3,20.2-14.1,41.8C49-26.3,46-15.7,46.5-13.4A17.511,17.511,0,0,0,55-1.8C58.3-.1,70,0,256,0S453.7-.1,457-1.8a17.511,17.511,0,0,0,8.5-11.6c.5-2.3-2.5-12.9-11.9-42.4-6.8-21.6-13.2-40.4-14.1-41.8a16.465,16.465,0,0,0-5.8-4.5c-4.1-1.8-8.8-1.9-133.3-1.9H171.3l-2.7,2.1a6.953,6.953,0,0,0-.3,10.7l2.3,2.2,128.4.2,128.5.3L434.6-66c4,12.4,9.2,28.9,11.7,36.8L450.8-15H61.2l4.5-14.2c2.5-7.9,7.7-24.4,11.7-36.8l7.1-22.5,29.4-.5,29.3-.5,1.9-2.4a6.778,6.778,0,0,0,0-9.2l-1.9-2.4-30.4-.3C84.8-104,82.2-103.9,78.3-102.1Z" fill="#d8a457"/>
    <path id="Path_108" data-name="Path 108" d="M124.6-70.9a6.953,6.953,0,0,0-.3,10.7c2,1.9,3.5,2.2,10.1,2.2,6.8,0,8-.3,10.1-2.5a8.236,8.236,0,0,0,2.5-5,8.236,8.236,0,0,0-2.5-5c-2.1-2.2-3.3-2.5-9.8-2.5C128.7-73,126.8-72.6,124.6-70.9Z" fill="#d8a457"/>
    <path id="Path_109" data-name="Path 109" d="M165.6-70.8c-3.6,3.3-3.9,7.5-.6,10.8,1.6,1.6,3.3,2,9.6,2,4.1,0,8.4-.5,9.5-1.1,4.6-2.4,4.2-10.5-.7-12.8-1.4-.6-5.4-1.1-8.9-1.1C169.3-73,167.7-72.6,165.6-70.8Z" fill="#d8a457"/>
    <path id="Path_110" data-name="Path 110" d="M207.3-72c-4.7,1.9-5.6,7.8-1.8,11.5,2.1,2.2,3.3,2.5,10.3,2.5,9.3,0,12.2-1.8,12.2-7.5,0-5.2-3.6-7.5-11.9-7.4C212.5-72.9,208.5-72.5,207.3-72Z" fill="#d8a457"/>
    <path id="Path_111" data-name="Path 111" d="M246.5-70.5c-3.2,3.1-3.3,7.4-.2,10.3,2,1.9,3.5,2.2,10.4,2.2,7.6,0,8.3-.2,10.2-2.6,2.8-3.5,2.6-6.9-.4-9.9-2.1-2.2-3.3-2.5-10-2.5S248.6-72.7,246.5-70.5Z" fill="#d8a457"/>
    <path id="Path_112" data-name="Path 112" d="M287.8-71a7.453,7.453,0,0,0-.8,11c1.7,1.7,3.3,2,10,2,7.3,0,8.3-.2,10.7-2.6,2-2,2.4-3.1,1.9-5.7-1-5.1-2.8-6.2-11.4-6.5C291.5-73.1,290.1-72.9,287.8-71Z" fill="#d8a457"/>
    <path id="Path_113" data-name="Path 113" d="M329.3-71.8c-4.8,2.3-5.1,10.3-.4,12.7,1.1.6,5.4,1.1,9.5,1.1,8.9,0,11.6-1.7,11.6-7.4,0-5.4-3.6-7.6-11.9-7.5C334.5-72.9,330.5-72.4,329.3-71.8Z" fill="#d8a457"/>
    <path id="Path_114" data-name="Path 114" d="M367.5-70.5a8.236,8.236,0,0,0-2.5,5,8.236,8.236,0,0,0,2.5,5c2.1,2.2,3.3,2.5,10.3,2.5,6.9,0,8.1-.3,10-2.3,3.1-3.3,2.9-8-.4-10.6-2.2-1.7-4.1-2.1-10.1-2.1C370.8-73,369.6-72.7,367.5-70.5Z" fill="#d8a457"/>
    <path id="Path_115" data-name="Path 115" d="M124.6-43.9a6.75,6.75,0,0,0,0,10.8c2.2,1.7,4.1,2.1,10.1,2.1,6.5,0,7.7-.3,9.8-2.5a8.236,8.236,0,0,0,2.5-5,8.236,8.236,0,0,0-2.5-5c-2.1-2.2-3.3-2.5-9.8-2.5C128.7-46,126.8-45.6,124.6-43.9Z" fill="#d8a457"/>
    <path id="Path_116" data-name="Path 116" d="M165.7-44.8a8.045,8.045,0,0,0-2.2,9.4c1.6,3.9,3,4.4,11.5,4.4,8.4,0,9.7-.5,11.6-4.2,1.3-2.5,1.3-3.5.3-5.9a7.807,7.807,0,0,0-3-3.9C181.3-46.5,167.7-46.2,165.7-44.8Z" fill="#d8a457"/>
    <path id="Path_117" data-name="Path 117" d="M205.5-43.5c-3.2,3.1-3.2,6.9,0,10,2.1,2.2,3.3,2.5,9.8,2.5,9.1,0,12.7-2.1,12.7-7.5S224.4-46,215.3-46C208.8-46,207.6-45.7,205.5-43.5Z" fill="#d8a457"/>
    <path id="Path_118" data-name="Path 118" d="M246.5-43.5c-3.2,3.1-3.2,6.9,0,10,2.1,2.2,3.3,2.5,10,2.5s7.9-.3,10-2.5a8.236,8.236,0,0,0,2.5-5,8.236,8.236,0,0,0-2.5-5c-2.1-2.2-3.3-2.5-10-2.5S248.6-45.7,246.5-43.5Z" fill="#d8a457"/>
    <path id="Path_119" data-name="Path 119" d="M287.6-43.9a6.953,6.953,0,0,0-.3,10.7c2,1.9,3.5,2.2,9.9,2.2,9.4,0,12.2-1.7,12.2-7.5,0-5.7-2.8-7.5-11.9-7.5C291.7-46,289.8-45.6,287.6-43.9Z" fill="#d8a457"/>
    <path id="Path_120" data-name="Path 120" d="M329.2-45.3c-.7.3-1.9,1.8-2.8,3.5-1.3,2.5-1.3,3.5-.3,5.9a7.807,7.807,0,0,0,3,3.9c2.7,1.5,16.1,1.2,18.1-.4a7.761,7.761,0,0,0,0-12.2C345.5-45.9,332-46.4,329.2-45.3Z" fill="#d8a457"/>
    <path id="Path_121" data-name="Path 121" d="M367.5-43.5a8.236,8.236,0,0,0-2.5,5,8.236,8.236,0,0,0,2.5,5c2.1,2.2,3.3,2.5,9.8,2.5,9.1,0,12.7-2.1,12.7-7.5S386.4-46,377.3-46C370.8-46,369.6-45.7,367.5-43.5Z" fill="#d8a457"/>
  </g>
</svg>
