<svg xmlns="http://www.w3.org/2000/svg" width="511.286" height="511.888" viewBox="0 0 511.286 511.888">
  <g id="contract_1" transform="translate(-0.5 512)">
    <path id="Path_122" data-name="Path 122" d="M16.6-510A27.737,27.737,0,0,0,2.7-497.5l-2.2,4v475l2.2,4A31.8,31.8,0,0,0,15-2.4C18.4-.6,25-.5,194.5-.2,388,0,375.4.4,383.2-6a29.47,29.47,0,0,0,6.2-8.2l2.6-5.2v-95.3l-2.3-2.1a8.457,8.457,0,0,0-11.8.4l-2.4,2.6-.2,44.6c-.2,24.6-.5,45.7-.8,46.9-1.3,5.6,8.5,5.3-179,5.3H22.8l-2.9-2.9L17-22.8V-488.9l2.4-2.8,2.4-2.8,172.9-.3c121.9-.1,173.6.1,175.4.9a8.022,8.022,0,0,1,3.8,3.2c.8,1.6,1.2,25.5,1.4,84.9l.2,82.6,2.4,2.6c3.2,3.4,8.8,3.6,11.9.3l2.2-2.3v-170l-2.6-5.3a26.377,26.377,0,0,0-16.1-13c-2.9-.8-58.9-1.1-178-1.1C26.3-511.9,21.4-511.9,16.6-510Z" fill="#d8a457"/>
    <path id="Path_123" data-name="Path 123" d="M82.4-460c-5,2-5.4,4-5.4,25.3,0,19.7,0,19.8,2.5,22.2l2.4,2.5H310.7l2-2.3c3-3.3,3.4-5.4,1.9-9.1a7.337,7.337,0,0,0-4.6-4.5c-2.4-.8-32.9-1.1-109.6-1.1H94v-17H310.7l2-2.3c3-3.3,3.4-5.4,1.9-9.1a7.337,7.337,0,0,0-4.6-4.5C306-461.2,85.8-461.4,82.4-460Z" fill="#d8a457"/>
    <path id="Path_124" data-name="Path 124" d="M475.5-406.9c-5.3,2.6-9.2,6.4-12.6,12.5-2.7,4.7-3.1,5-6.3,4.6a11.282,11.282,0,0,0-5.4.7c-1.1.6-6.5,8.8-12,18.3-13.8,23.7-11.8,21.6-18.4,18.4-5.3-2.6-5.7-2.6-9.1-1.2-2.5,1-3.9,2.3-4.4,4.3-1.5,5.7-.2,8.1,6.4,12.2l4.3,2.7L381.9-272l-36.1,62.5-8.9,23.9c-5,13.1-11.7,29-14.9,35.3-5.4,10.2-6,11.9-6,17.4a27.513,27.513,0,0,0,2.1,10.9l2.1,4.9-8.8,10.8c-4.8,5.9-9,11.2-9.4,11.6-.4.5-2.2-2.8-4-7.2-5-12.5-11.9-17.5-21.7-15.6-3.7.7-10.3,6.4-12.9,10.9-.8,1.5-1.4-2.3-2.7-16.8-1.8-20.8-2.7-23.5-9.5-28.1-6.5-4.4-16.2-2.9-21.4,3.3-3.8,4.5-25.4,69.6-24.4,73.5.8,3.5,6.2,6.9,9.6,6.2a10.312,10.312,0,0,0,4.5-2.8c1.1-1.3,6.3-15.4,12-33C237-121.2,241.7-135,242-135c.4,0,1.2,7.5,1.9,16.7.7,9.4,1.9,18.3,2.7,20.3,5.5,13.1,21.6,14.9,29.7,3.3,1.7-2.4,3.4-4.3,3.7-4.3.4,0,1.9,3.2,3.5,7.1,3.4,8.8,6.3,12.3,12,14.4a15.738,15.738,0,0,0,15.1-1.8c1.7-1.1,7.8-8,13.5-15.2l10.3-13.1,5.7.4a19.679,19.679,0,0,0,11.1-2c6.6-3.1,9.3-5.9,17.1-18.1,3.4-5.3,13-17.9,21.3-28l15.1-18.2,36.3-63c19.9-34.7,36.4-63.1,36.5-63.3.7-.8,8.5,4,9.9,6,3.3,4.6,2.2,7.2-16,38.8-9.7,16.8-17.8,31.9-18.1,33.7-.5,2.6,0,3.8,2.6,6.4,2.7,2.6,3.7,3,6.3,2.5a11.509,11.509,0,0,0,4.4-1.7c2-1.7,37.4-63.4,38.5-67.1,3.3-11.5-1.5-22.5-12.8-29.8l-6.2-4L497-334c11.7-20.1,12.9-23.9,9.1-27.4-1.9-1.8-1.9-1.9,1.5-8.1,4.3-7.8,5.2-14.2,3.1-21.6C507.4-402.2,498-409,486.1-409,481.6-408.9,478.2-408.3,475.5-406.9ZM492-390c3.2,3.2,3.5,6.4,1,11.6-1.3,2.5-2.8,4.8-3.5,5-.9.4-11.8-5.1-14.4-7.2-.7-.6,4.9-9.3,6.7-10.3C484.7-392.6,489.8-392.2,492-390Zm-18.6,28.1c7.7,4.5,14.3,8.3,14.5,8.5.3.3-15.2,27.8-16.5,29.3-.2.3-27.7-15.2-29.3-16.5-.4-.3,16.2-29.4,16.8-29.4C459.1-370,465.6-366.3,473.4-361.9Zm-20.7,47.2c5.1,2.8,9.3,5.6,9.3,6.1,0,.7-63.2,110.7-66.9,116.5-.7,1-4-.5-15.2-7-7.9-4.5-14.5-8.3-14.7-8.5-.2-.1,42-73.8,65.5-114.1l2.5-4.2,5.1,2.9C441.2-321.3,447.7-317.6,452.7-314.7ZM374.3-182.8c4.8,2.8,9,5.4,9.3,5.9s-4.3,6.7-10.2,13.9l-10.8,12.9-5.5-3.1c-3.1-1.8-6.8-3.9-8.3-4.8-1.6-.8-2.8-1.8-2.8-2.1,0-.7,11-30,11.7-31.2.2-.4,2.1.2,4.1,1.4C363.9-188.7,369.4-185.5,374.3-182.8Zm-27.7,43.4a49.087,49.087,0,0,1,6.4,4c0,1.7-4.4,8.5-6.2,9.8a8.352,8.352,0,0,1-13.1-6.4c0-3.6,3.7-11,5.5-11C339.7-143,343.1-141.4,346.6-139.4Z" fill="#d8a457"/>
    <path id="Path_125" data-name="Path 125" d="M105.3-389.8c-3,3.4-3.4,5.5-1.9,9.3,1.1,2.6,2.4,3.6,5.3,4.5,2.7.8,28.8,1,90.1.8l86.4-.3,2.4-2.8c3.1-3.7,3.1-8.1-.1-11.2l-2.4-2.5H107.3Z" fill="#d8a457"/>
    <path id="Path_126" data-name="Path 126" d="M142.1-331.9c-3.5,1.4-5,3.9-5.1,8.1,0,2.8.6,4.1,2.6,5.7,2.7,2.1,3.1,2.1,99.6,2.1h96.9l2.4-2.5a7.8,7.8,0,0,0-.1-11.6l-2.6-2.4-95.6-.2C180.1-332.8,143.6-332.5,142.1-331.9Z" fill="#d8a457"/>
    <path id="Path_127" data-name="Path 127" d="M66.3-281.3c-3,.6-6.3,4.9-6.3,8.4a10.54,10.54,0,0,0,2.4,5.6l2.4,2.8h177l2.6-2.4a8.241,8.241,0,0,0,0-12.2l-2.6-2.4-86.6-.1C107.5-281.7,67.5-281.6,66.3-281.3Z" fill="#d8a457"/>
    <path id="Path_128" data-name="Path 128" d="M271.5-281.3a8.513,8.513,0,0,0-3.9,14.4l2.6,2.4h66l2.4-2.8c3.1-3.6,3.1-7.8,0-11.4l-2.4-2.8-31.4-.2C287.6-281.7,272.6-281.6,271.5-281.3Z" fill="#d8a457"/>
    <path id="Path_129" data-name="Path 129" d="M64.5-237.8c-5.1,2.9-6.1,9.3-2,13.3l2.4,2.5h91.8l2.7-2.6c3.5-3.6,3.4-7.7-.3-11.5l-2.9-2.9H111.3C79.5-238.9,65.9-238.6,64.5-237.8Z" fill="#d8a457"/>
    <path id="Path_130" data-name="Path 130" d="M184-237.7a8.077,8.077,0,0,0-1.3,13.7c2.4,1.9,4.2,2,35.2,2,31.5,0,32.8-.1,34.9-2,4.6-4.3,3.7-10.9-1.8-13.7C247.4-239.5,187.6-239.5,184-237.7Z" fill="#d8a457"/>
    <path id="Path_131" data-name="Path 131" d="M92-177.5A72.957,72.957,0,0,0,36.4-124c-2.6,10-2.4,26.5.4,36.5A72.974,72.974,0,0,0,87.5-36.8c6.1,1.7,10.6,2.2,19,2.3,13.6,0,19.2-1.3,32.3-7.7,8.7-4.1,11.7-6.2,18.1-12.6,13.1-13,20.7-29,21.8-46.1.5-8.4.5-8.7-2.2-11.4-6-5.9-14.5-1.4-14.5,7.6-.1,12.5-6.4,27.2-16,36.7-11.1,11.1-23.7,16.4-39,16.4-31.3.2-55.6-24.1-55.4-55.4,0-15.3,5.3-27.9,16.4-39a54.275,54.275,0,0,1,51-14.4c5.8,1.3,8.9,2.7,22.2,9.6,3.3,1.8,3.9,1.8,7.2.4,3.8-1.6,5-4.2,4.4-9.2-.6-5.7-16.7-14.8-31.7-18A81.325,81.325,0,0,0,92-177.5Z" fill="#d8a457"/>
    <path id="Path_132" data-name="Path 132" d="M138-131.3c-.8.3-8.8,7.6-17.8,16.1L103.9-99.7,93.6-109.8C85.1-118.2,82.8-120,80.3-120c-4.3,0-8.3,4.2-8.3,8.7,0,3,1.3,4.8,10.6,14.3,5.8,6,12.1,11.6,14.1,12.5a20.681,20.681,0,0,0,14.7.5c3.9-1.4,34.5-31.6,36.2-35.7,1.9-4.5.2-9.1-4.2-10.9a15.686,15.686,0,0,0-3.6-1.3A11.8,11.8,0,0,0,138-131.3Z" fill="#d8a457"/>
  </g>
</svg>
