<svg xmlns="http://www.w3.org/2000/svg" xmlns:xlink="http://www.w3.org/1999/xlink" viewBox="0 0 1024.92 303.09"><defs><style>.cls-1{fill:url(#radial-gradient);}.cls-2{fill:url(#linear-gradient);}.cls-3{fill:url(#linear-gradient-2);}.cls-4{fill:url(#linear-gradient-3);}.cls-5{fill:url(#linear-gradient-4);}.cls-6,.cls-7{fill:#002a41;}.cls-7{font-size:40px;font-family:CenturyGothic, Century Gothic;letter-spacing:0.2em;}</style><radialGradient id="radial-gradient" cx="121.52" cy="282.37" r="69.23" gradientTransform="translate(0 238.82) scale(1 0.15)" gradientUnits="userSpaceOnUse"><stop offset="0" stop-color="#bcbec0"/><stop offset="1" stop-color="#fff" stop-opacity="0"/></radialGradient><linearGradient id="linear-gradient" x1="1905.95" y1="225.46" x2="2020.63" y2="225.46" gradientTransform="translate(2105.35 311.54) rotate(180)" gradientUnits="userSpaceOnUse"><stop offset="0" stop-color="#ffc20e"/><stop offset="1" stop-color="#f37021"/></linearGradient><linearGradient id="linear-gradient-2" x1="35.31" y1="217.01" x2="149.99" y2="217.01" gradientUnits="userSpaceOnUse"><stop offset="0" stop-color="#00aeef"/><stop offset="1" stop-color="#102448"/></linearGradient><linearGradient id="linear-gradient-3" x1="33.46" y1="107.29" x2="234.7" y2="107.29" gradientUnits="userSpaceOnUse"><stop offset="0" stop-color="#102448"/><stop offset="1" stop-color="#00aeef"/></linearGradient><linearGradient id="linear-gradient-4" x1="1904.1" y1="115.73" x2="2105.35" y2="115.73" gradientTransform="translate(2105.35 311.54) rotate(180)" gradientUnits="userSpaceOnUse"><stop offset="0" stop-color="#ed1c24"/><stop offset="0.22" stop-color="#f26522"/><stop offset="1" stop-color="#ffc20e"/></linearGradient></defs><g id="Layer_2" data-name="Layer 2"><g id="Layer_1-2" data-name="Layer 1"><path class="cls-1" d="M189.59,282.38c0,5.54-30.47,10-68.07,10s-68.07-4.5-68.07-10,30.47-10.06,68.07-10.06S189.59,276.83,189.59,282.38Z"/><path class="cls-2" d="M182.65,63.41c-43.79-33-97.93-30-97.93-30s99.91,38.39,90.74,105.43c0,0,23.58-8.93,23.93-48.34C199.49,79.65,188.69,68,182.65,63.41Z"/><path class="cls-3" d="M52,239.67c43.8,33,98,30,98,30S50.07,231.32,59.25,164.27c0,0-23.59,8.93-23.94,48.33C35.21,223.43,46,235.13,52,239.67Z"/><path class="cls-4" d="M35.31,214.57s-4.92-30,32.48-54.63c40.05-26.34,98.36-55.75,129.12-74.84C238.08,59.55,234.63,0,234.63,0s.07,20.18-60,55.12c-36.79,21.38-64,35.13-102.86,60C21,147.65,35.31,214.57,35.31,214.57Z"/><path class="cls-5" d="M199.39,88.51s4.93,30-32.48,54.63c-40,26.35-98.35,55.75-129.12,74.86C-3.37,243.55.07,303.09.07,303.09S0,282.91,60.11,248c36.79-21.38,64-35.13,102.87-60.05C213.67,155.45,199.39,88.51,199.39,88.51Z"/><path class="cls-6" d="M248.36,150.65v68.06h-8V131.12h8v5.63c7.32-7.28,15.83-10.88,25.52-10.88q15.53,0,25.24,9.71t10,24.52v58.61h-8v-57.9a25.69,25.69,0,0,0-8.06-19,27.24,27.24,0,0,0-38.23-.13A30.5,30.5,0,0,0,248.36,150.65Z"/><path class="cls-6" d="M430.42,218.71h-8V200.87a62.7,62.7,0,0,1-5.09,6q-20.67,20.67-53.7,11.59-39.3-22.18-27.09-65.55,17-29.76,46.09-29.72a47.27,47.27,0,0,1,34.7,14.35,66.63,66.63,0,0,1,5.09,6v-12.4h8Zm-8-38.53V164.31C420,151.75,412,141.7,398.21,134c-23.76-6.51-41.6,1-53.78,22.42-5,18.29-1.85,33,9.55,44.42S380,215.36,398.2,210.4C412,202.7,420,192.62,422.41,180.18Z"/><path class="cls-6" d="M465.22,76V218.71h-8V76Z"/><path class="cls-6" d="M586.53,218.71h-8V200.87a58.53,58.53,0,0,1-5.08,6,49,49,0,0,1-69.3,0q-20.81-20.81-11.48-53.94,16.94-29.77,46.1-29.74a47.28,47.28,0,0,1,34.68,14.35,61.94,61.94,0,0,1,5.08,6v-12.4h8Zm-8-38.53V164.31c-2.34-12.52-10.41-22.56-24-30.25q-27.35-7.59-44.44,9.56c-11.37,11.38-14.6,26.1-9.58,44.31,12.07,21.45,30.13,29,54,22.41C568.07,202.64,576.15,192.58,578.49,180.18Z"/><path class="cls-6" d="M637.36,173.67q-10.26-5.52-14.18-9.46a20.26,20.26,0,0,1-6.15-14.8,20.52,20.52,0,0,1,6.15-14.95A20.14,20.14,0,0,1,638,128.27a19.58,19.58,0,0,1,14.44,5.7A17.77,17.77,0,0,1,658,146.73v.45l-7,2.75c-.6-4.51-2-7.91-4.24-10.17-3.11-3.13-7.56-4.06-13.31-2.86Q625,141.31,625,149.41a12.56,12.56,0,0,0,3.85,9.2q2.21,2.2,9.46,6.77,11.4,6.24,16.22,11a25.11,25.11,0,0,1,7.58,18.29c0,10.53-5.3,18.84-16,24.73-11.63,3.11-21.07,1.08-28.31-6.2-5-5.08-7.58-10.69-7.58-16.74l7.94-2c0,7.61,3.74,13.41,11.27,17.39,8,2.16,14.4.71,19.46-4.28a18,18,0,0,0,.06-25.51Q646,179.2,637.36,173.67Z"/><path class="cls-6" d="M684.83,76h8v59.68a33.82,33.82,0,0,1,24.42-9.81q15.54,0,25.25,9.71t10,24.52v58.61h-8v-57.9a25.68,25.68,0,0,0-8.09-19,27.22,27.22,0,0,0-38.22-.13,25.93,25.93,0,0,0-5.34,7.41v69.66h-8Z"/><path class="cls-6" d="M873.85,218.71h-8V200.87a61.29,61.29,0,0,1-5.09,6,49,49,0,0,1-83.67-34.62,49,49,0,0,1,83.67-34.71,65,65,0,0,1,5.09,6v-12.4h8Zm-8-38.53V164.31c-2.39-12.52-10.35-22.54-24-30.24q-35.66-10-54,22.39c-5,18.27-1.84,33,9.56,44.38s26.24,14.55,44.42,9.48C855.47,202.63,863.44,192.58,865.83,180.18Z"/><path class="cls-6" d="M995.16,218.71h-8V200.87a57.29,57.29,0,0,1-5.08,6q-20.71,20.7-53.76,11.56c-26.12-14.8-35.19-36.71-27-65.57,11.33-19.8,26.64-29.67,46.07-29.67a47.3,47.3,0,0,1,34.69,14.35,60.55,60.55,0,0,1,5.08,6v-12.4h8Zm-8-38.53V164.31c-2.34-12.53-10.41-22.56-24-30.26q-35.77-9.92-54,22.43c-5,18.26-1.84,33,9.56,44.36s26.19,14.54,44.42,9.5C976.72,202.65,984.79,192.59,987.13,180.18Z"/><text class="cls-7" transform="translate(240.33 283.6)">Think Simple. Build Powerful.</text></g></g></svg>