<svg xmlns="http://www.w3.org/2000/svg" width="479.698" height="479.231" viewBox="0 0 479.698 479.231">
  <g id="server_1" transform="translate(-16.177 495.731)">
    <path id="Path_93" data-name="Path 93" d="M241-495.4c-36.3,4.7-65.1,18-89.6,41.6-10.9,10.5-18.7,20-25.2,30.8l-3.9,6.5-12.9.7c-7.5.4-16.1,1.5-20.5,2.7C44.1-401.4,14-360.9,16.3-315.5c2.2,42.6,30.6,77.3,72.6,88.7,6.4,1.8,11.4,2.2,31.4,2.6l23.7.4v13.5c0,7.7.5,15.3,1.2,17.7,2.3,7.8,13.5,16.6,21.2,16.6,1.4,0,1.6,1.9,1.6,16v16H79.4L77-149.2A34.359,34.359,0,0,0,61.5-165c-7.1-3.5-19.7-3.5-27,0A35.2,35.2,0,0,0,19-149.5c-3.5,7.2-3.5,19.8,0,27A35.2,35.2,0,0,0,34.5-107c4.1,2,6.6,2.4,13.5,2.4,7.3,0,9.2-.4,13.6-2.6,7.7-4,10.8-7.1,14.5-14.3l3.4-6.5h99.6l2.4-2.5c2.5-2.4,2.5-2.4,2.5-24V-176h16v64H132.9l-2.4,2.5c-2.4,2.3-2.5,2.9-2.5,16.2v13.8l-6.8,3.6c-23.4,12.3-22.5,45.2,1.5,57,3.9,1.9,6.4,2.4,13.3,2.4,7.8,0,9-.3,14.8-3.4,7-3.8,10.1-7,14-14.5,2.2-4.3,2.6-6.4,2.7-13.6,0-7.8-.3-9-3.4-14.8-3.8-7.1-8.2-11.2-15.3-14.4L144-79.4V-96h67.1l2.4-2.5,2.5-2.4V-176h32v80.5l-6.8,3.6c-23.3,12.3-22.6,45.2,1.3,56.9,4.1,2,6.5,2.5,13.5,2.5,7.8,0,9-.3,14.8-3.4,7-3.8,10.1-7,14-14.5,2.2-4.3,2.6-6.4,2.7-13.6,0-7.8-.3-9-3.4-14.8-3.8-7.1-8.2-11.2-15.3-14.4L264-95.4V-176h32v75.1l2.5,2.4,2.4,2.5H368v16.5l-6.8,3.6c-23.4,12.3-22.5,45.2,1.5,57,3.9,1.9,6.4,2.4,13.3,2.4,7.8,0,9-.3,14.8-3.4,7-3.8,10.1-7,14-14.5,2.2-4.3,2.6-6.4,2.7-13.6,0-7.8-.3-9-3.4-14.8-3.8-7.1-8.2-11.2-15.3-14.4L384-79.4V-93.2c0-13.4-.1-14-2.5-16.3l-2.4-2.5H312v-64h16v21.5c0,21.6,0,21.6,2.5,24l2.4,2.5h99.7l2.4,5.2A34.359,34.359,0,0,0,450.5-107c4.1,2,6.5,2.5,13.5,2.5,7.7-.1,9.1-.4,14.8-3.4,7-3.8,10-6.9,14-14.5,2.3-4.4,2.7-6.3,2.7-13.6-.1-10-2.4-16-9-22.5-6.5-6.6-12.5-8.9-22.5-9-7.8,0-9,.3-14.8,3.4-7.1,3.8-11.2,8.2-14.4,15.4l-2.2,4.7H344v-16c0-14.8.1-16,1.8-16,4.8,0,11.3-3.4,15.5-8,5.7-6.4,6.7-10.1,6.7-26.4V-224h27.4c19.5,0,29.5-.4,34.8-1.4,35-6.8,60.6-34.2,65.1-69.7,3.7-29.2-10.7-59.4-36.1-76-13.5-8.9-25.8-12.3-43.5-12.4H403l-2.6-8c-7.4-22.5-19.3-41.6-37.3-59.6-22.6-22.6-47-35.8-77.7-41.9C275.7-495,249-496.4,241-495.4Zm42.5,18.2c50.8,11,90.2,48.4,104,98.7,3.5,12.8,5.1,13.9,16.9,11.6,44.1-8.5,83.3,31.8,74.1,76.1-5,24-25.3,44.4-49,49.3-8.8,1.8-63.5,2.2-63.5.4a10.856,10.856,0,0,0-2.1-4c-2-2.9-2-2.9-.1-5.7,3.7-5.2,4.2-9,4.2-29.2s-.5-24-4.2-29.3c-1.9-2.7-1.9-2.7,0-5.5a28.855,28.855,0,0,0,3-6.1c1.6-4.7,1.6-41,0-46.5s-9.9-13.8-15.4-15.4c-5.9-1.7-184.9-1.7-190.8,0-5.5,1.6-13.8,9.9-15.4,15.4s-1.6,41.8,0,46.5a28.855,28.855,0,0,0,3,6.1c1.9,2.8,1.9,2.8,0,5.5-3.7,5.3-4.2,9.1-4.2,29.3s.5,24,4.2,29.2c1.9,2.8,1.9,2.8-.1,5.7A10.371,10.371,0,0,0,146-241c0,1.9-45.8.8-53-1.3-21.3-6.1-36.8-17.2-48.1-34.5-8.8-13.4-12.4-25.8-12.4-43.2,0-22.9,7.8-41.5,23.7-57,16.6-16.2,38.2-24,62.3-22.6,12.6.7,13.1.6,17.5-8.4,4.6-9.2,14.8-22.8,24-32,20.5-20.6,46.3-33.7,75.7-38.5C247.6-480.4,271.4-479.8,283.5-477.2Zm66,111.7c2.5,2.4,2.5,2.6,2.5,21.5s0,19.1-2.5,21.5l-2.4,2.5H164.9l-2.4-2.5c-2.5-2.4-2.5-2.6-2.5-21.5s0-19.1,2.5-21.5l2.4-2.5H347.1Zm0,64c2.5,2.4,2.5,2.6,2.5,21.5s0,19.1-2.5,21.5l-2.4,2.5H164.9l-2.4-2.5c-2.5-2.4-2.5-2.6-2.5-21.5s0-19.1,2.5-21.5l2.4-2.5H347.1Zm0,64c2.5,2.4,2.5,2.6,2.5,21.5s0,19.1-2.5,21.5l-2.4,2.5H164.9l-2.4-2.5c-2.5-2.4-2.5-2.6-2.5-21.5s0-19.1,2.5-21.5l2.4-2.5H347.1ZM54.3-150.6a15.7,15.7,0,0,1,4.8,25.7c-6.5,6.5-15.7,6.5-22.2,0C24.5-137.2,38.2-157.4,54.3-150.6Zm416,0a15.7,15.7,0,0,1,4.8,25.7c-6.5,6.5-15.7,6.5-22.2,0C440.5-137.2,454.2-157.4,470.3-150.6Zm-207.9,72c4.4,1.8,8.6,7.5,9.3,12.4a15.73,15.73,0,0,1-26.8,13.3C232.5-65.3,246.2-85.4,262.4-78.6Zm-120,16c4.4,1.8,8.6,7.5,9.3,12.4a15.73,15.73,0,0,1-26.8,13.3C112.5-49.3,126.2-69.4,142.4-62.6Zm240,0c4.4,1.8,8.6,7.5,9.3,12.4a15.73,15.73,0,0,1-26.8,13.3C352.5-49.3,366.2-69.4,382.4-62.6Z" fill="#d8a457"/>
    <path id="Path_94" data-name="Path 94" d="M176-344v8h96v-16H176Z" fill="#d8a457"/>
    <path id="Path_95" data-name="Path 95" d="M288-344v8h16v-16H288Z" fill="#d8a457"/>
    <path id="Path_96" data-name="Path 96" d="M320-344v8h16v-16H320Z" fill="#d8a457"/>
    <path id="Path_97" data-name="Path 97" d="M176-280v8h96v-16H176Z" fill="#d8a457"/>
    <path id="Path_98" data-name="Path 98" d="M288-280v8h16v-16H288Z" fill="#d8a457"/>
    <path id="Path_99" data-name="Path 99" d="M320-280v8h16v-16H320Z" fill="#d8a457"/>
    <path id="Path_100" data-name="Path 100" d="M176-216v8h96v-16H176Z" fill="#d8a457"/>
    <path id="Path_101" data-name="Path 101" d="M288-216v8h16v-16H288Z" fill="#d8a457"/>
    <path id="Path_102" data-name="Path 102" d="M320-216v8h16v-16H320Z" fill="#d8a457"/>
  </g>
</svg>
